<?xml version="1.0" encoding="UTF-8" standalone="no"?>
<!-- Created with Inkscape (http://www.inkscape.org/) -->

<svg
   xmlns:dc="http://purl.org/dc/elements/1.1/"
   xmlns:cc="http://creativecommons.org/ns#"
   xmlns:rdf="http://www.w3.org/1999/02/22-rdf-syntax-ns#"
   xmlns:svg="http://www.w3.org/2000/svg"
   xmlns="http://www.w3.org/2000/svg"
   xmlns:sodipodi="http://sodipodi.sourceforge.net/DTD/sodipodi-0.dtd"
   xmlns:inkscape="http://www.inkscape.org/namespaces/inkscape"
   width="210mm"
   height="297mm"
   viewBox="0 0 210 297"
   version="1.1"
   id="svg3541"
   inkscape:version="0.92.2 (unknown)"
   sodipodi:docname="footer_logo.svg">
  <defs
     id="defs3535" />
  <sodipodi:namedview
     id="base"
     pagecolor="#ffffff"
     bordercolor="#666666"
     borderopacity="1.0"
     inkscape:pageopacity="0.0"
     inkscape:pageshadow="2"
     inkscape:zoom="0.12374369"
     inkscape:cx="-348.55236"
     inkscape:cy="-148.40491"
     inkscape:document-units="mm"
     inkscape:current-layer="layer1"
     showgrid="false"
     inkscape:window-width="1366"
     inkscape:window-height="701"
     inkscape:window-x="0"
     inkscape:window-y="24"
     inkscape:window-maximized="1" />
  <metadata
     id="metadata3538">
    <rdf:RDF>
      <cc:Work
         rdf:about="">
        <dc:format>image/svg+xml</dc:format>
        <dc:type
           rdf:resource="http://purl.org/dc/dcmitype/StillImage" />
        <dc:title></dc:title>
      </cc:Work>
    </rdf:RDF>
  </metadata>
  <g
     inkscape:label="Layer 1"
     inkscape:groupmode="layer"
     id="layer1">
    <g
       transform="matrix(7.4906191,0,0,7.4906191,4859.7196,-567.17175)"
       id="g3848">
      <polygon
         id="polygon3842"
         points="273,244 534727,244 534727,599995 273,599995 "
         class="fil0"
         style="clip-rule:evenodd;fill:#25185a;fill-rule:evenodd;image-rendering:optimizeQuality;shape-rendering:geometricPrecision;text-rendering:geometricPrecision"
         transform="matrix(1.127497e-5,0,0,1.127497e-5,-679.57052,123.88224)" />
      <polygon
         id="polygon3844"
         points="16507,18462 518493,18462 518493,581777 16507,581777 "
         class="fil1"
         style="clip-rule:evenodd;fill:#ffffff;fill-rule:evenodd;image-rendering:optimizeQuality;shape-rendering:geometricPrecision;text-rendering:geometricPrecision"
         transform="matrix(1.127497e-5,0,0,1.127497e-5,-679.57052,123.88224)" />
      <path
         id="path3846"
         d="m -679.19272,130.23963 h 0.278 v -0.1278 c 0,-0.72982 0.57825,-1.32921 1.29155,-1.32921 0.71329,0 1.29154,0.59939 1.29154,1.32921 0,0.0431 -0.002,0.0857 -0.006,0.1278 h 2.4136 v -1.97319 h -0.30216 v 0.032 c 0.004,0.0376 0.006,0.0758 0.006,0.11452 0,0.57737 -0.45746,1.04542 -1.02175,1.04542 -0.5643,0 -1.02175,-0.46805 -1.02175,-1.04542 v -4.139 h -2.13153 v 0.40174 c 0.92842,0 1.68105,0.77006 1.68105,1.71999 0,0.94993 -0.75264,1.71999 -1.68105,1.71999 h -0.79761 v 2.12396 z"
         class="fil0"
         inkscape:connector-curvature="0"
         style="clip-rule:evenodd;fill:#25185a;fill-rule:evenodd;stroke-width:0.00001127;image-rendering:optimizeQuality;shape-rendering:geometricPrecision;text-rendering:geometricPrecision" />
    </g>
  </g>
</svg>
