<?xml version="1.0" encoding="UTF-8" standalone="no"?>
<!-- Created with Inkscape (http://www.inkscape.org/) -->

<svg
   xmlns:dc="http://purl.org/dc/elements/1.1/"
   xmlns:cc="http://creativecommons.org/ns#"
   xmlns:rdf="http://www.w3.org/1999/02/22-rdf-syntax-ns#"
   xmlns:svg="http://www.w3.org/2000/svg"
   xmlns="http://www.w3.org/2000/svg"
   xmlns:sodipodi="http://sodipodi.sourceforge.net/DTD/sodipodi-0.dtd"
   xmlns:inkscape="http://www.inkscape.org/namespaces/inkscape"
   width="143.94431mm"
   height="59.377533mm"
   viewBox="0 0 143.94431 59.377533"
   version="1.1"
   id="svg8"
   inkscape:version="0.92.4 (unknown)"
   sodipodi:docname="logoone.svg">
  <defs
     id="defs2" />
  <sodipodi:namedview
     id="base"
     pagecolor="#ffffff"
     bordercolor="#666666"
     borderopacity="1.0"
     inkscape:pageopacity="0.0"
     inkscape:pageshadow="2"
     inkscape:zoom="0.7"
     inkscape:cx="535.49595"
     inkscape:cy="395.22898"
     inkscape:document-units="mm"
     inkscape:current-layer="layer1"
     showgrid="false"
     showguides="false"
     inkscape:window-width="1920"
     inkscape:window-height="1004"
     inkscape:window-x="1366"
     inkscape:window-y="27"
     inkscape:window-maximized="1" />
  <metadata
     id="metadata5">
    <rdf:RDF>
      <cc:Work
         rdf:about="">
        <dc:format>image/svg+xml</dc:format>
        <dc:type
           rdf:resource="http://purl.org/dc/dcmitype/StillImage" />
        <dc:title></dc:title>
      </cc:Work>
    </rdf:RDF>
  </metadata>
  <g
     inkscape:label="Layer 1"
     inkscape:groupmode="layer"
     id="layer1"
     transform="translate(240.3112,-74.076775)">
    <circle
       style="opacity:1;fill:#777777;fill-opacity:1;stroke:none;stroke-width:0.2846939;stroke-linecap:round;stroke-linejoin:round;stroke-miterlimit:4;stroke-dasharray:none;stroke-dashoffset:0;stroke-opacity:1"
       id="path909"
       cx="-170.8262"
       cy="3.6176269"
       r="35.151787"
       inkscape:export-xdpi="17.142857"
       inkscape:export-ydpi="17.142857" />
    <rect
       style="opacity:1;fill:#ffffff;fill-opacity:1;stroke:none;stroke-width:0.32385287;stroke-linecap:round;stroke-linejoin:round;stroke-miterlimit:4;stroke-dasharray:none;stroke-dashoffset:0;stroke-opacity:1"
       id="rect883"
       width="143.94431"
       height="59.377533"
       x="-240.3112"
       y="74.076775" />
    <path
       inkscape:connector-curvature="0"
       id="path821"
       style="font-style:normal;font-variant:normal;font-weight:800;font-stretch:normal;font-size:54.27910995px;line-height:1.25;font-family:'Avenir LT Std';-inkscape-font-specification:'Avenir LT Std Ultra-Bold';font-variant-ligatures:normal;font-variant-caps:normal;font-variant-numeric:normal;font-feature-settings:normal;text-align:start;letter-spacing:0px;word-spacing:0px;writing-mode:lr-tb;text-anchor:start;fill:#777777;fill-opacity:1;stroke:none;stroke-width:5.08866644"
       d="m -240.30932,119.21636 h 27.08528 v -7.81619 h -18.61774 v -7.81619 h 16.66369 v -7.816194 h -16.66369 v -7.164842 h 17.64071 v -7.816192 h -26.10825 z" />
    <path
       style="font-style:normal;font-variant:normal;font-weight:800;font-stretch:normal;font-size:54.27910995px;line-height:1.25;font-family:'Avenir LT Std';-inkscape-font-specification:'Avenir LT Std Ultra-Bold';font-variant-ligatures:normal;font-variant-caps:normal;font-variant-numeric:normal;font-feature-settings:normal;text-align:start;letter-spacing:0px;word-spacing:0px;writing-mode:lr-tb;text-anchor:start;fill:#777777;fill-opacity:1;stroke:none;stroke-width:19.23275566"
       d="m -721.53906,305.33594 v 56.21094 h -0.41016 c -6.97508,-9.64203 -18.8745,-13.12891 -31.59375,-13.12891 -28.31063,0 -45.54297,25.43766 -45.54297,53.13281 0,30.15697 19.48975,51.49219 49.03125,51.49219 13.95016,0 25.84797,-8.41157 30.56641,-15.5918 h 0.41211 v 13.13086 h 28.31055 V 305.33594 Z m -22.15625,70.16015 c 15.38623,0 24.61914,10.25845 24.61914,25.23438 0,14.97589 -9.23291,25.23242 -24.61914,25.23242 -15.38619,0 -24.61719,-10.25653 -24.61719,-25.23242 0,-14.97593 9.231,-25.23438 24.61719,-25.23438 z"
       id="path823"
       inkscape:connector-curvature="0"
       transform="scale(0.26458333)" />
    <path
       inkscape:connector-curvature="0"
       id="path825"
       style="font-style:normal;font-variant:normal;font-weight:800;font-stretch:normal;font-size:54.27910995px;line-height:1.25;font-family:'Avenir LT Std';-inkscape-font-specification:'Avenir LT Std Ultra-Bold';font-variant-ligatures:normal;font-variant-caps:normal;font-variant-numeric:normal;font-feature-settings:normal;text-align:start;letter-spacing:0px;word-spacing:0px;writing-mode:lr-tb;text-anchor:start;fill:#777777;fill-opacity:1;stroke:none;stroke-width:5.08866644"
       d="m -179.45002,106.02654 c 0,8.41326 6.51349,13.84117 14.65536,13.84117 8.14187,0 14.65536,-5.42791 14.65536,-13.84117 0,-8.413264 -6.51349,-13.841175 -14.65536,-13.841175 -8.14187,0 -14.65536,5.427911 -14.65536,13.841175 z m 8.14187,0 c 0,-3.96238 2.44256,-6.676332 6.51349,-6.676332 4.07093,0 6.51349,2.713952 6.51349,6.676332 0,3.96237 -2.44256,6.67633 -6.51349,6.67633 -4.07093,0 -6.51349,-2.71396 -6.51349,-6.67633 z" />
    <path
       inkscape:connector-curvature="0"
       id="path827"
       style="font-style:normal;font-variant:normal;font-weight:normal;font-stretch:normal;font-size:54.27910995px;line-height:1.25;font-family:'Avenir LT Std';-inkscape-font-specification:'Avenir LT Std, Normal';font-variant-ligatures:normal;font-variant-caps:normal;font-variant-numeric:normal;font-feature-settings:normal;text-align:start;letter-spacing:0px;word-spacing:0px;writing-mode:lr-tb;text-anchor:start;fill:#ffcc00;fill-opacity:1;stroke:none;stroke-width:5.08866644"
       d="m -148.63561,114.54836 c 0,2.76823 2.22544,4.99368 4.99368,4.99368 2.76823,0 4.99368,-2.22545 4.99368,-4.99368 0,-2.76824 -2.22545,-4.99368 -4.99368,-4.99368 -2.76824,0 -4.99368,2.22544 -4.99368,4.99368 z" />
    <path
       d="m -184.36884,22.832431 h 27.08528 v -7.81619 H -175.9013 V 7.2000514 h 16.66369 V -0.61614262 H -175.9013 V -7.7809846 h 17.64071 v -7.8161924 h -26.10825 z"
       style="font-style:normal;font-variant:normal;font-weight:800;font-stretch:normal;font-size:54.27910995px;line-height:1.25;font-family:'Avenir LT Std';-inkscape-font-specification:'Avenir LT Std Ultra-Bold';font-variant-ligatures:normal;font-variant-caps:normal;font-variant-numeric:normal;font-feature-settings:normal;text-align:start;letter-spacing:0px;word-spacing:0px;writing-mode:lr-tb;text-anchor:start;fill:#ffffff;fill-opacity:1;stroke:none;stroke-width:5.08866644"
       id="path907"
       inkscape:connector-curvature="0"
       inkscape:export-xdpi="17.142857"
       inkscape:export-ydpi="17.142857" />
  </g>
</svg>
